<svg xmlns="http://www.w3.org/2000/svg" width="24" height="24" viewBox="0 0 24 24" fill="none" stroke="currentColor" stroke-width="2" stroke-linecap="round" stroke-linejoin="round" class="lucide lucide-ship"><path d="M2 21c.6.5 1.2.8 2.3.8 1.1 0 1.7-.3 2.3-.8 .6-.5 1.2-.8 2.3-.8 1.1 0 1.7-.3 2.3-.8 .6-.5 1.2-.8 2.3-.8 1.1 0 1.7-.3 2.3-.8 .6-.5 1.2-.8 2.3-.8 1.1 0 1.7-.3 2.3-.8"/><path d="M2 13.2V21"/><path d="M22 13.2V21"/><path d="M15.5 13.2c-.3-1.1-.5-2.2-.8-3.3C13.5 6.5 13 3 12 3s-1.5 3.5-2.7 6.9c-.3 1.1-.5 2.2-.8 3.3"/><path d="M6 13.2h12"/><path d="M7 17.8h10"/></svg>